0
SECTION
2
HEADER
9
$INSUNITS
70
4
9
$ACADVER
1
AC1014
9
$HANDSEED
5
FFFF
0
ENDSEC
0
SECTION
2
TABLES
0
TABLE
2
VPORT
5
8
100
AcDbSymbolTable
0
ENDTAB
0
TABLE
2
LTYPE
5
5
100
AcDbSymbolTable
0
LTYPE
5
14
100
AcDbSymbolTableRecord
100
AcDbLinetypeTableRecord
2
BYBLOCK
70
0
0
LTYPE
5
15
100
AcDbSymbolTableRecord
100
AcDbLinetypeTableRecord
2
BYLAYER
70
0
0
ENDTAB
0
TABLE
2
LAYER
5
2
100
AcDbSymbolTable
70
2
0
LAYER
5
50
100
AcDbSymbolTableRecord
100
AcDbLayerTableRecord
2
0
70
0
6
CONTINUOUS
0
ENDTAB
0
TABLE
2
STYLE
5
3
100
AcDbSymbolTable
70
1
0
STYLE
5
11
100
AcDbSymbolTableRecord
100
AcDbTextStyleTableRecord
2
STANDARD
70
0
0
ENDTAB
0
TABLE
2
VIEW
5
6
100
AcDbSymbolTable
70
0
0
ENDTAB
0
TABLE
2
UCS
5
7
100
AcDbSymbolTable
70
0
0
ENDTAB
0
TABLE
2
APPID
5
9
100
AcDbSymbolTable
70
2
0
APPID
5
12
100
AcDbSymbolTableRecord
100
AcDbRegAppTableRecord
2
ACAD
70
0
0
ENDTAB
0
TABLE
2
DIMSTYLE
5
A
100
AcDbSymbolTable
70
1
0
ENDTAB
0
TABLE
2
BLOCK_RECORD
5
1
100
AcDbSymbolTable
70
1
0
BLOCK_RECORD
5
1F
100
AcDbSymbolTableRecord
100
AcDbBlockTableRecord
2
*MODEL_SPACE
0
BLOCK_RECORD
5
1B
100
AcDbSymbolTableRecord
100
AcDbBlockTableRecord
2
*PAPER_SPACE
0
ENDTAB
0
ENDSEC
0
SECTION
2
BLOCKS
0
BLOCK
5
20
100
AcDbEntity
100
AcDbBlockBegin
2
*MODEL_SPACE
0
ENDBLK
5
21
100
AcDbEntity
100
AcDbBlockEnd
0
BLOCK
5
1C
100
AcDbEntity
100
AcDbBlockBegin
2
*PAPER_SPACE
0
ENDBLK
5
1D
100
AcDbEntity
100
AcDbBlockEnd
0
ENDSEC
0
SECTION
2
ENTITIES
0
CIRCLE
5
100
100
AcDbEntity
8
0
100
AcDbCircle
10
202.49928779758844
20
-34.999999999992603
30
0
40
2.1999999999999886
210
8.2735735796699819e-35
220
-3.8518598887744717e-34
230
1
0
CIRCLE
5
101
100
AcDbEntity
8
0
100
AcDbCircle
10
202.49928779758847
20
415.00000000001108
30
0
40
2.1999999999999886
210
8.2735735796699819e-35
220
-3.8518598887744717e-34
230
1
0
CIRCLE
5
102
100
AcDbEntity
8
0
100
AcDbCircle
10
-202.50028779758793
20
-34.999999999992617
30
0
40
2.1999999999999886
210
8.2735735796699819e-35
220
-3.8518598887744717e-34
230
1
0
CIRCLE
5
103
100
AcDbEntity
8
0
100
AcDbCircle
10
-202.50028779758793
20
415.00000000001108
30
0
40
2.1999999999999886
210
8.2735735796699819e-35
220
-3.8518598887744717e-34
230
1
0
LWPOLYLINE
5
104
100
AcDbEntity
8
0
100
AcDbPolyline
90
4
70
1
43
0.0
10
-188.62970862594406
20
121.69953375631607
10
-188.62970862594406
20
123.69953375631607
42
-0.99999999999999989
10
-185.32970862594408
20
123.69953375631607
10
-185.32970862594408
20
121.69953375631607
42
-0.99999999999999989
0
LWPOLYLINE
5
105
100
AcDbEntity
8
0
100
AcDbPolyline
90
4
70
1
43
0.0
10
188.62870862594465
20
123.6995337563161
10
188.62870862594465
20
121.6995337563161
42
-0.99999999999999989
10
185.32870862594467
20
121.6995337563161
10
185.32870862594467
20
123.6995337563161
42
-0.99999999999999989
0
LWPOLYLINE
5
106
100
AcDbEntity
8
0
100
AcDbPolyline
90
4
70
1
43
0.0
10
-188.62970862594409
20
271.69953375631604
10
-188.62970862594409
20
273.69953375631599
42
-0.99999999999999989
10
-185.32970862594411
20
273.69953375631599
10
-185.32970862594411
20
271.69953375631604
42
-0.99999999999999989
0
LWPOLYLINE
5
107
100
AcDbEntity
8
0
100
AcDbPolyline
90
4
70
1
43
0.0
10
188.62870862594463
20
273.69953375631604
10
188.62870862594463
20
271.6995337563161
42
-0.99999999999999989
10
185.32870862594464
20
271.6995337563161
10
185.32870862594464
20
273.69953375631604
42
-0.99999999999999989
0
CIRCLE
5
108
100
AcDbEntity
8
0
100
AcDbCircle
10
-184.0004999999997
20
341.99999982119499
30
0
40
1.6000000000000014
210
8.273573579669983e-35
220
-7.7037197775489434e-34
230
1
0
CIRCLE
5
109
100
AcDbEntity
8
0
100
AcDbCircle
10
-202.50028779763772
20
-13.319753748450903
30
0
40
2.1999999999999886
210
8.2735735796699819e-35
220
-3.8518598887744717e-34
230
1
0
SPLINE
5
110
100
AcDbEntity
8
0
100
AcDbSpline
70
2
71
3
72
20
73
16
74
0
42
0.000000001
43
0.0000000001
44
0.0000000001
40
-3.14159265358979
40
-3.14159265358979
40
-3.14159265358979
40
-3.14159265358979
40
-2.69279370307697
40
-2.2439947525641402
40
-1.3463968515384801
40
-1.0471975511966001
40
-0.74799825085471305
40
-0.44879895051282798
40
-0.14959965017094301
40
0.14959965017094301
40
0.44879895051282798
40
1.3463968515384801
40
2.2439947525641402
40
2.69279370307697
40
3.14159265358979
40
3.14159265358979
40
3.14159265358979
40
3.14159265358979
10
-177.04070202535473
20
348.00000000000898
30
0
10
-177.04070202535473
20
347.47533805243103
30
0
10
-177.38834226923973
20
346.43811772302104
30
0
10
-179.14149419032472
20
344.89560014141802
30
0
10
-181.65670786548273
20
344.50165293718101
30
0
10
-183.69844634388471
20
345.07084812183501
30
0
10
-184.74980202916976
20
345.66018823107407
30
0
10
-185.53985986602473
20
346.47340985934699
30
0
10
-185.97847042962073
20
347.46576959901603
30
0
10
-185.97816791808171
20
348.53367222557603
30
0
10
-185.24966729107871
20
350.190920219676
30
0
10
-182.57636207102473
20
351.64667093012298
30
0
10
-179.14039988030072
20
351.10262485694807
30
0
10
-177.38915639247671
20
349.56255601605608
30
0
10
-177.04070202535473
20
348.52466194758608
30
0
10
-177.04070202535473
20
348.00000000000898
30
0
0
CIRCLE
5
111
100
AcDbEntity
8
0
100
AcDbCircle
10
-202.50028779763772
20
64.880246251548982
30
0
40
2.1999999999999886
210
8.2735735796699819e-35
220
-3.8518598887744717e-34
230
1
0
CIRCLE
5
112
100
AcDbEntity
8
0
100
AcDbCircle
10
-108.59918611582304
20
398.91336352789256
30
0
40
2.0000000000000107
210
8.2735735796699798e-35
220
3.8518598887744717e-34
230
1
0
CIRCLE
5
113
100
AcDbEntity
8
0
100
AcDbCircle
10
-143.23964353531761
20
378.91368611189125
30
0
40
12.999999999999989
210
8.2735735796699808e-35
220
-3.8518598887744717e-34
230
1
0
CIRCLE
5
114
100
AcDbEntity
8
0
100
AcDbCircle
10
-178.22706984820695
20
358.71368611188757
30
0
40
1.9999999999999929
210
8.2735735796699787e-35
220
3.8518598887744717e-34
230
1
0
LWPOLYLINE
5
115
100
AcDbEntity
8
0
100
AcDbPolyline
90
8
70
1
43
0.0
10
-184.30071585318774
20
324.990000000007
10
-139.86172265445876
20
324.99000000000706
42
-0.41421356237309764
10
-137.86172265445873
20
322.99000000000706
10
-137.86172265445873
20
307.00000000000699
42
-0.41421356237309503
10
-139.86172265445873
20
305.00000000000699
10
-184.30071585318572
20
305.00000000000301
42
-0.41421356237295454
10
-186.30071585318575
20
307.00000000000205
10
-186.30071585318771
20
322.99000000000598
42
-0.41421356237325113
0
LWPOLYLINE
5
116
100
AcDbEntity
8
0
100
AcDbPolyline
90
8
70
1
43
0.0
10
83.671912894236172
20
258.8534722127622
42
0.1926294801462545
10
78.843406391895286
20
256.92156109880699
10
-10.357347853201189
20
171.93756978166132
42
0.41421356237305534
10
-10.477139045052235
20
166.98927208746801
10
-7.8214604687651912
20
164.20182320014379
42
0.41421356237312529
10
9.4975814609107267
20
163.78255402866199
10
93.452149957282828
20
243.76836110520594
42
0.6769667640234055
10
87.416516829356169
20
258.85347221276197
0
LWPOLYLINE
5
117
100
AcDbEntity
8
0
100
AcDbPolyline
90
6
70
1
43
0.0
10
-33.872412415745039
20
236.59763402487599
10
-54.279199173131005
20
255.82992945809562
42
-0.67894350413344617
10
-53.078953843193339
20
258.85347221276186
10
-12.48559745170283
20
258.85347221276174
42
-0.67696676402354083
10
-11.278470826117706
20
255.83644999125079
10
-31.465040460221942
20
236.60415455803073
42
-0.39853508432163337
0
LWPOLYLINE
5
118
100
AcDbEntity
8
0
100
AcDbPolyline
90
12
70
1
43
0.0
10
-33.515442324787735
20
189.265735708215
10
-104.14462500595988
20
255.82992945809588
42
-0.6789435041332581
10
-102.94437967602173
20
258.8534722127622
10
-74.634582636823851
20
258.85347221276265
42
-0.19122531227289036
10
-69.833601317074042
20
256.94764323142812
10
-32.195717844738937
20
221.47596887980299
42
0.39853508432137147
10
-22.566230022648153
20
221.50205101242386
10
14.610736671074394
20
256.9215610988071
42
-0.19262948014626974
10
19.439243173414965
20
258.85347221276265
10
44.753383915091369
20
258.85347221276197
42
-0.67696676402366318
10
45.960510540677284
20
255.83644999125067
10
-23.885954502697292
20
189.29181784083613
42
-0.39853508432137191
0
LWPOLYLINE
5
119
100
AcDbEntity
8
0
100
AcDbPolyline
90
8
70
1
43
0.0
10
140.49929074804427
20
324.98999999999904
10
184.29928232590626
20
324.98999999999796
42
-0.41421356237309503
10
186.29928232590626
20
322.98999999999802
10
186.29928232590626
20
306.99999999999807
42
-0.41421356237309503
10
184.29928232590626
20
304.99999999999807
10
140.49929074804325
20
304.99999999999807
42
-0.41421356237309243
10
138.49929074804328
20
306.99999999999807
10
138.49929074804325
20
322.98999999999899
42
-0.4142135623732407
0
CIRCLE
5
120
100
AcDbEntity
8
0
100
AcDbCircle
10
-55.000499999999434
20
390.00000000001108
30
0
40
2.2000000000000099
210
-1.9721522630525295e-31
220
-8.7655671970943842e-64
230
1
0
CIRCLE
5
121
100
AcDbEntity
8
0
100
AcDbCircle
10
54.999500000000268
20
390.00000000001
30
0
40
2.2000000000000099
210
-1.9721522630525295e-31
220
-8.7655671970943842e-64
230
1
0
CIRCLE
5
122
100
AcDbEntity
8
0
100
AcDbCircle
10
-55.000499999999938
20
340.00000000001
30
0
40
2.2000000000000002
210
1.5420548889712844e-50
220
6.8539260401546795e-83
230
1
0
CIRCLE
5
123
100
AcDbEntity
8
0
100
AcDbCircle
10
54.999500000000168
20
340.00000000001
30
0
40
2.2000000000000099
210
-1.9721522630525295e-31
220
-8.7655671970943842e-64
230
1
0
CIRCLE
5
124
100
AcDbEntity
8
0
100
AcDbCircle
10
-30.000499999999732
20
365.00000000001
30
0
40
29.000000000000004
210
1.9721522630525295e-31
220
8.7655671970943855e-64
230
1
0
CIRCLE
5
125
100
AcDbEntity
8
0
100
AcDbCircle
10
-5.0004999999997146
20
390.00000000001
30
0
40
2.2000000000000002
210
-2.3978825065140472e-51
220
1.6572786946681329e-84
230
1
0
CIRCLE
5
126
100
AcDbEntity
8
0
100
AcDbCircle
10
4.9995000000005261
20
390.00000000001108
30
0
40
2.2000000000000002
210
-2.3978825065140472e-51
220
1.6572786946681329e-84
230
1
0
CIRCLE
5
127
100
AcDbEntity
8
0
100
AcDbCircle
10
4.9995000000000465
20
340.00000000001103
30
0
40
2.2000000000000002
210
-2.3978825065140472e-51
220
1.6572786946681329e-84
230
1
0
CIRCLE
5
128
100
AcDbEntity
8
0
100
AcDbCircle
10
-5.0004999999998549
20
340.00000000001
30
0
40
2.2000000000000002
210
-2.3978825065140472e-51
220
1.6572786946681329e-84
230
1
0
CIRCLE
5
129
100
AcDbEntity
8
0
100
AcDbCircle
10
29.999500000000268
20
365.00000000001
30
0
40
28.999999999999901
210
1.5420548889712847e-50
220
6.853926040154681e-83
230
1
0
LWPOLYLINE
5
130
100
AcDbEntity
8
0
100
AcDbPolyline
90
12
70
1
43
0.0
10
-11.379179656456355
20
330.62132034356387
42
0.66817863791934651
10
-9.2578593128967039
20
325.50000000000398
10
9.2568593128965855
20
325.500000000005
42
0.66817863791931109
10
11.378179656456066
20
330.621320343565
10
9.2908452181907286
20
332.70865478182986
42
0.11643382146584384
10
8.1182081726817863
20
333.43338433242201
10
6.8802114874609819
20
333.84604989416255
42
0.08061157167056042
10
5.9315281894101757
20
334.00000000001108
10
-5.9325281894107356
20
334.00000000001
42
0.080611571670513166
10
-6.8812114874611048
20
333.84604989416198
10
-8.1192081726811729
20
333.43338433242161
42
0.1164338214658473
10
-9.2918452181904527
20
332.70865478182998
0
CIRCLE
5
131
100
AcDbEntity
8
0
100
AcDbCircle
10
183.99950000000024
20
341.99999982119499
30
0
40
1.6000000000000003
210
1.5420548889712844e-50
220
-3.8518598887744717e-34
230
1
0
CIRCLE
5
132
100
AcDbEntity
8
0
100
AcDbCircle
10
202.49928779763826
20
-13.3197537484509
30
0
40
2.2000000000000002
210
1.5420548889712844e-50
220
6.8539260401546795e-83
230
1
0
CIRCLE
5
133
100
AcDbEntity
8
0
100
AcDbCircle
10
-119.95028779758672
20
415.00000000001
30
0
40
2.1999999999999802
210
1.5420548889712851e-50
220
-3.8518598887744726e-34
230
1
0
CIRCLE
5
134
100
AcDbEntity
8
0
100
AcDbCircle
10
-165.05028779758675
20
415.00000000001
30
0
40
2.2000000000000002
210
1.5420548889712844e-50
220
6.8539260401546795e-83
230
1
0
SPLINE
5
135
100
AcDbEntity
8
0
100
AcDbSpline
70
2
71
3
72
20
73
16
74
0
42
0.000000001
43
0.0000000001
44
0.0000000001
40
-3.14159265358979
40
-3.14159265358979
40
-3.14159265358979
40
-3.14159265358979
40
-2.69279370307697
40
-2.2439947525641402
40
-1.3463968515384801
40
-1.0471975511966001
40
-0.74799825085471305
40
-0.44879895051282798
40
-0.14959965017094301
40
0.14959965017094301
40
0.44879895051282798
40
1.3463968515384801
40
2.2439947525641402
40
2.69279370307697
40
3.14159265358979
40
3.14159265358979
40
3.14159265358979
40
3.14159265358979
10
177.03970202535527
20
348.00000000000898
30
0
10
177.03970202535527
20
347.47533805243103
30
0
10
177.38734226924026
20
346.43811772302104
30
0
10
179.14049419032526
20
344.89560014141802
30
0
10
181.65570786548327
20
344.50165293718101
30
0
10
183.69744634388525
20
345.07084812183501
30
0
10
184.74880202917029
20
345.66018823107407
30
0
10
185.53885986602526
20
346.47340985934699
30
0
10
185.97747042962126
20
347.46576959901603
30
0
10
185.97716791808224
20
348.53367222557603
30
0
10
185.24866729107924
20
350.190920219676
30
0
10
182.57536207102527
20
351.64667093012298
30
0
10
179.13939988030126
20
351.10262485694807
30
0
10
177.38815639247724
20
349.56255601605608
30
0
10
177.03970202535527
20
348.52466194758608
30
0
10
177.03970202535527
20
348.00000000000898
30
0
0
CIRCLE
5
136
100
AcDbEntity
8
0
100
AcDbCircle
10
202.49928779763826
20
64.880246251548996
30
0
40
2.2000000000000002
210
1.5420548889712844e-50
220
6.8539260401546795e-83
230
1
0
CIRCLE
5
137
100
AcDbEntity
8
0
100
AcDbCircle
10
119.94928779758729
20
415.00000000001
30
0
40
2.1999999999999802
210
1.5420548889712851e-50
220
-3.8518598887744726e-34
230
1
0
CIRCLE
5
138
100
AcDbEntity
8
0
100
AcDbCircle
10
165.04928779758725
20
415.00000000001
30
0
40
2.2000000000000002
210
1.5420548889712844e-50
220
6.8539260401546795e-83
230
1
0
CIRCLE
5
139
100
AcDbEntity
8
0
100
AcDbCircle
10
99.999287797598072
20
315.00000000000801
30
0
40
2.0999999999999899
210
1.9721522630525295e-31
220
8.7655671970943828e-64
230
1
0
CIRCLE
5
140
100
AcDbEntity
8
0
100
AcDbCircle
10
-100.00071220240174
20
315.00000000000102
30
0
40
2.0999999999999899
210
1.9721522630525295e-31
220
8.7655671970943828e-64
230
1
0
CIRCLE
5
141
100
AcDbEntity
8
0
100
AcDbCircle
10
-0.00071220240188970001
20
315.000000000005
30
0
40
2.1000000000000001
210
1.5420548889712847e-50
220
-3.8518598887744717e-34
230
1
0
CIRCLE
5
142
100
AcDbEntity
8
0
100
AcDbCircle
10
-0.00049999999971524504
20
-34.999999999992603
30
0
40
2.2000000000000002
210
1.5420548889712844e-50
220
6.8539260401546795e-83
230
1
0
LWPOLYLINE
5
143
100
AcDbEntity
8
0
100
AcDbPolyline
90
4
70
1
43
0.0
10
-7.5004999999997155
20
2.0000000000073941
42
1.0000033357861784
10
-7.500479985365951
20
-3.9999999999258411
10
7.4994999999869361
20
-3.9999999999926059
42
0.99999999999999989
10
7.4995000000002845
20
2.0000000000073994
0
LWPOLYLINE
5
144
100
AcDbEntity
8
0
100
AcDbPolyline
90
4
70
1
43
0.0
10
159.29590993044729
20
5.0000000000073896
42
0.99999999999999989
10
159.29590993044729
20
-8.9999999999926121
10
173.29590993044724
20
-8.9999999999926121
42
0.99999999999999989
10
173.29590993044724
20
5.0000000000073888
0
LWPOLYLINE
5
145
100
AcDbEntity
8
0
100
AcDbPolyline
90
4
70
1
43
0.0
10
-159.29690993044673
20
-8.9999999999926121
10
-173.29690993044667
20
-8.9999999999926121
42
-0.99999999999999989
10
-173.29690993044676
20
5.0000000000073896
10
-159.29690993044673
20
5.0000000000073896
42
-0.99999999999999989
0
CIRCLE
5
146
100
AcDbEntity
8
0
100
AcDbCircle
10
-202.50028779761476
20
190.00000000000799
30
0
40
2.1499999999999999
210
1.5420548889712847e-50
220
6.853926040154681e-83
230
1
0
CIRCLE
5
147
100
AcDbEntity
8
0
100
AcDbCircle
10
202.4992877976153
20
190.00000000000799
30
0
40
2.1500000000000301
210
1.5420548889712842e-50
220
3.8518598887744717e-34
230
1
0
CIRCLE
5
148
100
AcDbEntity
8
0
100
AcDbCircle
10
-0.00049999999971524504
20
415.00000000001108
30
0
40
2.1500000000000101
210
1.9721522630525295e-31
220
8.7655671970943828e-64
230
1
0
CIRCLE
5
149
100
AcDbEntity
8
0
100
AcDbCircle
10
0.060953274844610883
20
289.39823237698317
30
0
40
9.0999999999999979
210
8.2735735796698686e-35
220
3.8518598887744717e-34
230
1
0
LWPOLYLINE
5
150
100
AcDbEntity
8
0
100
AcDbPolyline
90
4
70
1
43
0.0
10
-212.50028779758676
20
425.00000000001108
10
-212.50028779764176
20
-44.99999999999261
10
212.4992877976423
20
-44.999999999992603
10
212.49928779758727
20
425.00000000001108
0
ENDSEC
0
SECTION
2
OBJECTS
0
DICTIONARY
5
C
100
AcDbDictionary
3
ACAD_GROUP
350
D
3
ACAD_MLINESTYLE
350
17
0
DICTIONARY
5
D
100
AcDbDictionary
0
DICTIONARY
5
1A
330
C
100
AcDbDictionary
0
DICTIONARY
5
17
100
AcDbDictionary
0
ENDSEC
0
EOF
