0
SECTION
2
HEADER
9
$INSUNITS
70
4
9
$ACADVER
1
AC1014
9
$HANDSEED
5
FFFF
0
ENDSEC
0
SECTION
2
TABLES
0
TABLE
2
VPORT
5
8
100
AcDbSymbolTable
0
ENDTAB
0
TABLE
2
LTYPE
5
5
100
AcDbSymbolTable
0
LTYPE
5
14
100
AcDbSymbolTableRecord
100
AcDbLinetypeTableRecord
2
BYBLOCK
70
0
0
LTYPE
5
15
100
AcDbSymbolTableRecord
100
AcDbLinetypeTableRecord
2
BYLAYER
70
0
0
ENDTAB
0
TABLE
2
LAYER
5
2
100
AcDbSymbolTable
70
2
0
LAYER
5
50
100
AcDbSymbolTableRecord
100
AcDbLayerTableRecord
2
0
70
0
6
CONTINUOUS
0
ENDTAB
0
TABLE
2
STYLE
5
3
100
AcDbSymbolTable
70
1
0
STYLE
5
11
100
AcDbSymbolTableRecord
100
AcDbTextStyleTableRecord
2
STANDARD
70
0
0
ENDTAB
0
TABLE
2
VIEW
5
6
100
AcDbSymbolTable
70
0
0
ENDTAB
0
TABLE
2
UCS
5
7
100
AcDbSymbolTable
70
0
0
ENDTAB
0
TABLE
2
APPID
5
9
100
AcDbSymbolTable
70
2
0
APPID
5
12
100
AcDbSymbolTableRecord
100
AcDbRegAppTableRecord
2
ACAD
70
0
0
ENDTAB
0
TABLE
2
DIMSTYLE
5
A
100
AcDbSymbolTable
70
1
0
ENDTAB
0
TABLE
2
BLOCK_RECORD
5
1
100
AcDbSymbolTable
70
1
0
BLOCK_RECORD
5
1F
100
AcDbSymbolTableRecord
100
AcDbBlockTableRecord
2
*MODEL_SPACE
0
BLOCK_RECORD
5
1B
100
AcDbSymbolTableRecord
100
AcDbBlockTableRecord
2
*PAPER_SPACE
0
ENDTAB
0
ENDSEC
0
SECTION
2
BLOCKS
0
BLOCK
5
20
100
AcDbEntity
100
AcDbBlockBegin
2
*MODEL_SPACE
0
ENDBLK
5
21
100
AcDbEntity
100
AcDbBlockEnd
0
BLOCK
5
1C
100
AcDbEntity
100
AcDbBlockBegin
2
*PAPER_SPACE
0
ENDBLK
5
1D
100
AcDbEntity
100
AcDbBlockEnd
0
ENDSEC
0
SECTION
2
ENTITIES
0
LWPOLYLINE
5
100
100
AcDbEntity
8
0
100
AcDbPolyline
90
4
70
1
43
0.0
10
-189.14031988078636
20
121.70000000004273
10
-189.14031988078636
20
123.70000000004276
42
-0.99999999999999989
10
-184.84031988078638
20
123.70000000004273
10
-184.84031988078638
20
121.70000000004278
42
-0.99999999999999989
0
LWPOLYLINE
5
101
100
AcDbEntity
8
0
100
AcDbPolyline
90
4
70
1
43
0.0
10
189.11809737110244
20
123.70000000004279
10
189.11809737110244
20
121.70000000004279
42
-0.99999999999999989
10
184.81809737110243
20
121.70000000004279
10
184.81809737110243
20
123.70000000004279
42
-0.99999999999999989
0
LWPOLYLINE
5
102
100
AcDbEntity
8
0
100
AcDbPolyline
90
4
70
1
43
0.0
10
-189.14031988078642
20
271.70000000004273
10
-189.14031988078642
20
273.70000000004273
42
-0.99999999999999989
10
-184.84031988078641
20
273.70000000004273
10
-184.84031988078641
20
271.70000000004273
42
-0.99999999999999989
0
LWPOLYLINE
5
103
100
AcDbEntity
8
0
100
AcDbPolyline
90
4
70
1
43
0.0
10
189.11809737110241
20
273.70000000004273
10
189.11809737110241
20
271.70000000004279
42
-0.99999999999999989
10
184.8180973711024
20
271.70000000004279
10
184.8180973711024
20
273.70000000004273
42
-0.99999999999999989
0
CIRCLE
5
104
100
AcDbEntity
8
0
100
AcDbCircle
10
-184.01111125484204
20
342.00046606492174
30
0
40
1.6000000000000016
210
-1.9845626234236645e-31
220
-3.0814879110195785e-32
230
1
0
CIRCLE
5
105
100
AcDbEntity
8
0
100
AcDbCircle
10
-202.51089905248006
20
-13.319287504724258
30
0
40
2.1999999999999891
210
-1.9845626234236645e-31
220
-9.4651540246980922e-48
230
1
0
SPLINE
5
106
100
AcDbEntity
8
0
100
AcDbSpline
70
2
71
3
72
20
73
16
74
0
42
0.000000001
43
0.0000000001
44
0.0000000001
40
-3.14159265358979
40
-3.14159265358979
40
-3.14159265358979
40
-3.14159265358979
40
-2.69279370307697
40
-2.2439947525641402
40
-1.3463968515384801
40
-1.0471975511966001
40
-0.74799825085471305
40
-0.44879895051282798
40
-0.14959965017094301
40
0.14959965017094301
40
0.44879895051282798
40
1.3463968515384801
40
2.2439947525641402
40
2.69279370307697
40
3.14159265358979
40
3.14159265358979
40
3.14159265358979
40
3.14159265358979
10
-177.05131328019704
20
348.00046624373573
30
0
10
-177.05131328019704
20
347.47580429615772
30
0
10
-177.39895352408206
20
346.43858396674773
30
0
10
-179.15210544516702
20
344.89606638514476
30
0
10
-181.66731912032503
20
344.5021191809077
30
0
10
-183.70905759872701
20
345.0713143655617
30
0
10
-184.76041328401206
20
345.66065447480077
30
0
10
-185.55047112086703
20
346.47387610307368
30
0
10
-185.98908168446303
20
347.46623584274278
30
0
10
-185.98877917292401
20
348.53413846930272
30
0
10
-185.26027854592101
20
350.19138646340275
30
0
10
-182.58697332586704
20
351.64713717384973
30
0
10
-179.15101113514305
20
351.10309110067476
30
0
10
-177.39976764731904
20
349.56302225978277
30
0
10
-177.05131328019704
20
348.52512819131277
30
0
10
-177.05131328019704
20
348.00046624373573
30
0
0
CIRCLE
5
107
100
AcDbEntity
8
0
100
AcDbCircle
10
-202.51089905248006
20
64.88071249527566
30
0
40
2.1999999999999891
210
-1.9845626234236645e-31
220
-9.4651540246980922e-48
230
1
0
CIRCLE
5
108
100
AcDbEntity
8
0
100
AcDbCircle
10
-108.6097973706654
20
398.91382977161925
30
3.5527136788005009e-14
40
2.0000000000000111
210
-3.9567148864761944e-31
220
-1.8871118195154068e-47
230
1
0
CIRCLE
5
109
100
AcDbEntity
8
0
100
AcDbCircle
10
-143.25025479015997
20
378.91415235561794
30
3.5527136788005009e-14
40
12.999999999999991
210
-3.9567148864761936e-31
220
-1.8871118195154061e-47
230
1
0
CIRCLE
5
110
100
AcDbEntity
8
0
100
AcDbCircle
10
-178.23768110304925
20
358.71415235561426
30
0
40
1.9999999999999931
210
-3.9567148864761944e-31
220
-1.8871118195154068e-47
230
1
0
LWPOLYLINE
5
111
100
AcDbEntity
8
0
100
AcDbPolyline
90
8
70
1
43
0.0
10
-184.31132710803007
20
324.99046624373369
10
-139.87233390930103
20
324.99046624373375
42
-0.41421356237308982
10
-137.87233390930109
20
322.99046624373375
10
-137.87233390930109
20
307.00046624373374
42
-0.41421356237309503
10
-139.87233390930106
20
305.00046624373374
10
-184.31132710802811
20
305.00046624372976
42
-0.41421356237294416
10
-186.31132710802805
20
307.00046624372874
10
-186.31132710803001
20
322.99046624373267
42
-0.41421356237325113
0
LWPOLYLINE
5
112
100
AcDbEntity
8
0
100
AcDbPolyline
90
8
70
1
43
0.0
10
83.661301639393884
20
258.85393845648889
42
0.19262948014625492
10
78.832795137052969
20
256.92202734253374
10
-10.367959108043504
20
171.93803602538799
42
0.41421356237305507
10
-10.48775029989455
20
166.9897383311947
10
-7.832071723607509
20
164.20228944387048
42
0.4142135623731254
10
9.4869702060684169
20
163.78302027238868
10
93.441538702440539
20
243.76882734893263
42
0.6769667640234055
10
87.405905574513866
20
258.85393845648872
0
LWPOLYLINE
5
113
100
AcDbEntity
8
0
100
AcDbPolyline
90
6
70
1
43
0.0
10
-33.883023670587363
20
236.59810026860268
10
-54.289810427973315
20
255.83039570182234
42
-0.67894350413345128
10
-53.089565098035663
20
258.85393845648861
10
-12.496208706545149
20
258.85393845648844
42
-0.67696676402354083
10
-11.289082080960025
20
255.83691623497748
10
-31.475651715064245
20
236.60462080175745
42
-0.39853508432164608
0
LWPOLYLINE
5
114
100
AcDbEntity
8
0
100
AcDbPolyline
90
12
70
1
43
0.0
10
-33.526053579630059
20
189.2662019519417
10
-104.15523626080217
20
255.83039570182262
42
-0.67894350413325411
10
-102.95499093086406
20
258.85393845648889
10
-74.645193891666167
20
258.8539384564894
42
-0.19122531227288977
10
-69.844212571916387
20
256.94810947515487
10
-32.206329099581261
20
221.47643512352971
42
0.39853508432137252
10
-22.57684127749048
20
221.50251725615053
10
14.600125416232059
20
256.9220273425338
42
-0.19262948014627065
10
19.428631918572648
20
258.85393845648935
10
44.742772660249059
20
258.85393845648872
42
-0.67696676402366318
10
45.949899285834974
20
255.83691623497739
10
-23.896565757539598
20
189.29228408456282
42
-0.39853508432137191
0
LWPOLYLINE
5
115
100
AcDbEntity
8
0
100
AcDbPolyline
90
8
70
1
43
0.0
10
140.488679493202
20
324.99046624372573
10
184.28867107106402
20
324.99046624372465
42
-0.41421356237309503
10
186.28867107106402
20
322.99046624372471
10
186.28867107106402
20
307.00046624372476
42
-0.41421356237309503
10
184.28867107106402
20
305.00046624372476
10
140.488679493201
20
305.00046624372476
42
-0.41421356237309764
10
138.488679493201
20
307.00046624372476
10
138.48867949320098
20
322.99046624372573
42
-0.4142135623732407
0
CIRCLE
5
116
100
AcDbEntity
8
0
100
AcDbCircle
10
-55.011111254841758
20
390.00046624373783
30
0
40
2.2000000000000104
210
-3.944304526105059e-31
220
-6.1629758220391643e-33
230
1
0
CIRCLE
5
117
100
AcDbEntity
8
0
100
AcDbCircle
10
54.988888745157958
20
390.00046624373675
30
0
40
2.2000000000000104
210
-3.944304526105059e-31
220
-6.1629758220391643e-33
230
1
0
CIRCLE
5
118
100
AcDbEntity
8
0
100
AcDbCircle
10
-55.011111254842262
20
340.00046624373675
30
0
40
2.2000000000000011
210
-3.944304526105059e-31
220
6.1629758220391452e-33
230
1
0
CIRCLE
5
119
100
AcDbEntity
8
0
100
AcDbCircle
10
54.988888745157858
20
340.00046624373675
30
-3.5527136788005009e-14
40
2.2000000000000104
210
-3.944304526105059e-31
220
-6.1629758220391643e-33
230
1
0
CIRCLE
5
120
100
AcDbEntity
8
0
100
AcDbCircle
10
-30.011111254842064
20
365.00046624373675
30
3.5527136788005009e-14
40
29.000000000000007
210
-1.9721522630525295e-31
220
-1.848892746611747e-32
230
1
0
CIRCLE
5
121
100
AcDbEntity
8
0
100
AcDbCircle
10
-5.0111112548420333
20
390.00046624373675
30
3.5527136788005009e-14
40
2.2000000000000011
210
-3.944304526105059e-31
220
6.1629758220391452e-33
230
1
0
CIRCLE
5
122
100
AcDbEntity
8
0
100
AcDbCircle
10
4.9888887451582073
20
390.00046624373783
30
0
40
2.2000000000000011
210
-3.944304526105059e-31
220
6.1629758220391452e-33
230
1
0
CIRCLE
5
123
100
AcDbEntity
8
0
100
AcDbCircle
10
4.9888887451577286
20
340.00046624373772
30
-3.5527136788005009e-14
40
2.2000000000000011
210
-3.944304526105059e-31
220
6.1629758220391452e-33
230
1
0
CIRCLE
5
124
100
AcDbEntity
8
0
100
AcDbCircle
10
-5.0111112548421719
20
340.00046624373675
30
0
40
2.2000000000000011
210
-3.944304526105059e-31
220
6.1629758220391452e-33
230
1
0
CIRCLE
5
125
100
AcDbEntity
8
0
100
AcDbCircle
10
29.988888745157951
20
365.00046624373675
30
0
40
28.999999999999908
210
-3.944304526105059e-31
220
-6.1629758220391643e-33
230
1
0
LWPOLYLINE
5
126
100
AcDbEntity
8
0
100
AcDbPolyline
90
12
70
1
43
0.0
10
-11.389790911298673
20
330.62178658729061
42
0.66817863791934662
10
-9.2684705677390262
20
325.50046624373067
10
9.2462480580542721
20
325.50046624373175
42
0.66817863791931142
10
11.367568401613752
20
330.62178658729175
10
9.2802339633484152
20
332.70912102555656
42
0.11643382146584397
10
8.1075969178394693
20
333.43385057614876
10
6.8696002326186667
20
333.84651613788924
42
0.08061157167056042
10
5.9209169345678605
20
334.00046624373778
10
-5.9431394442530525
20
334.0004662437367
42
0.080611571670513166
10
-6.8918227423034235
20
333.84651613788867
10
-8.1298194275234916
20
333.4338505761483
42
0.11643382146584737
10
-9.3024564730327732
20
332.70912102555667
0
CIRCLE
5
127
100
AcDbEntity
8
0
100
AcDbCircle
10
183.98888874515802
20
342.00046606492174
30
3.5527136788005009e-14
40
1.6000000000000003
210
-1.97215226305253e-31
220
1.2325951644078308e-32
230
1
0
CIRCLE
5
128
100
AcDbEntity
8
0
100
AcDbCircle
10
202.48867654279604
20
-13.319287504724253
30
0
40
2.2000000000000011
210
-3.944304526105059e-31
220
6.1629758220391452e-33
230
1
0
CIRCLE
5
129
100
AcDbEntity
8
0
100
AcDbCircle
10
-119.96089905242908
20
415.00046624373675
30
0
40
2.1999999999999806
210
-3.944304526105059e-31
220
-6.1629758220391643e-33
230
1
0
CIRCLE
5
130
100
AcDbEntity
8
0
100
AcDbCircle
10
202.63752634577202
20
414.83056454156167
30
3.5527136788005009e-14
40
2.1500000000000004
210
-3.9443045261050599e-31
220
6.1629758220391465e-33
230
1
0
CIRCLE
5
131
100
AcDbEntity
8
0
100
AcDbCircle
10
-165.06089905242905
20
415.00046624373675
30
3.5527136788005009e-14
40
2.2000000000000011
210
-3.944304526105059e-31
220
6.1629758220391452e-33
230
1
0
CIRCLE
5
132
100
AcDbEntity
8
0
100
AcDbCircle
10
202.48867654280104
20
-35.010924732664762
30
0
40
2.1500000000000004
210
-3.9443045261050599e-31
220
6.1629758220391465e-33
230
1
0
SPLINE
5
133
100
AcDbEntity
8
0
100
AcDbSpline
70
2
71
3
72
20
73
16
74
0
42
0.000000001
43
0.0000000001
44
0.0000000001
40
-3.14159265358979
40
-3.14159265358979
40
-3.14159265358979
40
-3.14159265358979
40
-2.69279370307697
40
-2.2439947525641402
40
-1.3463968515384801
40
-1.0471975511966001
40
-0.74799825085471305
40
-0.44879895051282798
40
-0.14959965017094301
40
0.14959965017094301
40
0.44879895051282798
40
1.3463968515384801
40
2.2439947525641402
40
2.69279370307697
40
3.14159265358979
40
3.14159265358979
40
3.14159265358979
40
3.14159265358979
10
177.02909077051302
20
348.00046624373573
30
3.5527136788005009e-14
10
177.02909077051302
20
347.47580429615772
30
3.5527136788005009e-14
10
177.37673101439805
20
346.43858396674773
30
3.5527136788005009e-14
10
179.12988293548301
20
344.89606638514476
30
3.5527136788005009e-14
10
181.64509661064102
20
344.5021191809077
30
3.5527136788005009e-14
10
183.686835089043
20
345.0713143655617
30
3.5527136788005009e-14
10
184.73819077432805
20
345.66065447480077
30
3.5527136788005009e-14
10
185.52824861118302
20
346.47387610307368
30
3.5527136788005009e-14
10
185.96685917477902
20
347.46623584274278
30
0
10
185.96655666324
20
348.53413846930272
30
0
10
185.238056036237
20
350.19138646340275
30
3.5527136788005009e-14
10
182.56475081618302
20
351.64713717384973
30
3.5527136788005009e-14
10
179.12878862545904
20
351.10309110067476
30
3.5527136788005009e-14
10
177.37754513763502
20
349.56302225978277
30
3.5527136788005009e-14
10
177.02909077051302
20
348.52512819131277
30
3.5527136788005009e-14
10
177.02909077051302
20
348.00046624373573
30
3.5527136788005009e-14
0
CIRCLE
5
134
100
AcDbEntity
8
0
100
AcDbCircle
10
202.48867654279604
20
64.88071249527566
30
0
40
2.2000000000000011
210
-3.944304526105059e-31
220
6.1629758220391452e-33
230
1
0
CIRCLE
5
135
100
AcDbEntity
8
0
100
AcDbCircle
10
119.93867654274497
20
415.00046624373675
30
3.5527136788005009e-14
40
2.1999999999999806
210
-3.944304526105059e-31
220
-6.1629758220391643e-33
230
1
0
CIRCLE
5
136
100
AcDbEntity
8
0
100
AcDbCircle
10
165.03867654274501
20
415.00046624373675
30
0
40
2.2000000000000011
210
-3.944304526105059e-31
220
6.1629758220391452e-33
230
1
0
CIRCLE
5
137
100
AcDbEntity
8
0
100
AcDbCircle
10
-202.65974885545609
20
414.83056454156167
30
0
40
2.1500000000000004
210
-3.9443045261050599e-31
220
6.1629758220391465e-33
230
1
0
CIRCLE
5
138
100
AcDbEntity
8
0
100
AcDbCircle
10
-202.50989905248508
20
-35.010924732664563
30
0
40
2.1500000000000004
210
-3.9443045261050599e-31
220
6.1629758220391465e-33
230
1
0
CIRCLE
5
139
100
AcDbEntity
8
0
100
AcDbCircle
10
99.988676542755783
20
315.00046624373476
30
0
40
2.0999999999999903
210
-1.97215226305253e-31
220
-6.1629758220391602e-33
230
1
0
CIRCLE
5
140
100
AcDbEntity
8
0
100
AcDbCircle
10
-100.01132345724407
20
315.00046624372777
30
-3.5527136788005009e-14
40
2.0999999999999903
210
-1.97215226305253e-31
220
-6.1629758220391602e-33
230
1
0
CIRCLE
5
141
100
AcDbEntity
8
0
100
AcDbCircle
10
-0.011323457244207002
20
315.00046624373175
30
0
40
2.1000000000000005
210
-5.9164567891575885e-31
220
-6.1629758220391684e-33
230
1
0
CIRCLE
5
142
100
AcDbEntity
8
0
100
AcDbCircle
10
-0.011111254842024201
20
-34.999533756265969
30
0
40
2.2000000000000011
210
-3.944304526105059e-31
220
6.1629758220391452e-33
230
1
0
LWPOLYLINE
5
143
100
AcDbEntity
8
0
100
AcDbPolyline
90
4
70
1
43
0.0
10
-7.511111254842028
20
2.000466243734043
42
1.0000033357861784
10
-7.5110912402082626
20
-3.9995337561991922
10
7.488888745144628
20
-3.9995337562659583
42
0.99999999999999989
10
7.4888887451579764
20
2.0004662437340488
0
LWPOLYLINE
5
144
100
AcDbEntity
8
0
100
AcDbPolyline
90
4
70
1
43
0.0
10
159.28529867560502
20
5.0004662437340395
42
0.99999999999999989
10
159.28529867560502
20
-8.9995337562659632
10
173.28529867560502
20
-8.9995337562659632
42
0.99999999999999989
10
173.28529867560502
20
5.0004662437340395
0
LWPOLYLINE
5
145
100
AcDbEntity
8
0
100
AcDbPolyline
90
4
70
1
43
0.0
10
-159.30752118528909
20
-8.9995337562659632
10
-173.30752118528906
20
-8.9995337562659632
42
-0.99999999999999989
10
-173.30752118528906
20
5.0004662437340395
10
-159.30752118528909
20
5.0004662437340395
42
-0.99999999999999989
0
CIRCLE
5
146
100
AcDbEntity
8
0
100
AcDbCircle
10
-202.51089905245706
20
190.00046624373468
30
-3.5527136788005009e-14
40
2.1500000000000004
210
-3.9443045261050599e-31
220
6.1629758220391465e-33
230
1
0
CIRCLE
5
147
100
AcDbEntity
8
0
100
AcDbCircle
10
202.48867654277305
20
190.00046624373468
30
0
40
2.1500000000000306
210
-3.944304526105059e-31
220
-6.1629758220391643e-33
230
1
0
CIRCLE
5
148
100
AcDbEntity
8
0
100
AcDbCircle
10
-0.011111254842034932
20
415.00046624373783
30
0
40
2.1500000000000106
210
-3.9443045261050599e-31
220
-1.232595164407832e-32
230
1
0
CIRCLE
5
149
100
AcDbEntity
8
0
100
AcDbCircle
10
0.050342020002294208
20
289.39869862070992
30
0
40
9.0999999999999996
210
-1.9845626234236641e-31
220
-6.1629758220391643e-33
230
1
0
LWPOLYLINE
5
150
100
AcDbEntity
8
0
100
AcDbPolyline
90
4
70
1
43
0.0
10
-212.51089905242907
20
425.00046624373783
10
-212.51089905248406
20
-44.999533756265961
10
212.48867654280005
20
-44.999533756265961
10
212.48867654274503
20
425.00046624373783
0
ENDSEC
0
SECTION
2
OBJECTS
0
DICTIONARY
5
C
100
AcDbDictionary
3
ACAD_GROUP
350
D
3
ACAD_MLINESTYLE
350
17
0
DICTIONARY
5
D
100
AcDbDictionary
0
DICTIONARY
5
1A
330
C
100
AcDbDictionary
0
DICTIONARY
5
17
100
AcDbDictionary
0
ENDSEC
0
EOF
