0
SECTION
2
HEADER
9
$INSUNITS
70
4
9
$ACADVER
1
AC1014
9
$HANDSEED
5
FFFF
0
ENDSEC
0
SECTION
2
TABLES
0
TABLE
2
VPORT
5
8
100
AcDbSymbolTable
0
ENDTAB
0
TABLE
2
LTYPE
5
5
100
AcDbSymbolTable
0
LTYPE
5
14
100
AcDbSymbolTableRecord
100
AcDbLinetypeTableRecord
2
BYBLOCK
70
0
0
LTYPE
5
15
100
AcDbSymbolTableRecord
100
AcDbLinetypeTableRecord
2
BYLAYER
70
0
0
ENDTAB
0
TABLE
2
LAYER
5
2
100
AcDbSymbolTable
70
2
0
LAYER
5
50
100
AcDbSymbolTableRecord
100
AcDbLayerTableRecord
2
0
70
0
6
CONTINUOUS
0
ENDTAB
0
TABLE
2
STYLE
5
3
100
AcDbSymbolTable
70
1
0
STYLE
5
11
100
AcDbSymbolTableRecord
100
AcDbTextStyleTableRecord
2
STANDARD
70
0
0
ENDTAB
0
TABLE
2
VIEW
5
6
100
AcDbSymbolTable
70
0
0
ENDTAB
0
TABLE
2
UCS
5
7
100
AcDbSymbolTable
70
0
0
ENDTAB
0
TABLE
2
APPID
5
9
100
AcDbSymbolTable
70
2
0
APPID
5
12
100
AcDbSymbolTableRecord
100
AcDbRegAppTableRecord
2
ACAD
70
0
0
ENDTAB
0
TABLE
2
DIMSTYLE
5
A
100
AcDbSymbolTable
70
1
0
ENDTAB
0
TABLE
2
BLOCK_RECORD
5
1
100
AcDbSymbolTable
70
1
0
BLOCK_RECORD
5
1F
100
AcDbSymbolTableRecord
100
AcDbBlockTableRecord
2
*MODEL_SPACE
0
BLOCK_RECORD
5
1B
100
AcDbSymbolTableRecord
100
AcDbBlockTableRecord
2
*PAPER_SPACE
0
ENDTAB
0
ENDSEC
0
SECTION
2
BLOCKS
0
BLOCK
5
20
100
AcDbEntity
100
AcDbBlockBegin
2
*MODEL_SPACE
0
ENDBLK
5
21
100
AcDbEntity
100
AcDbBlockEnd
0
BLOCK
5
1C
100
AcDbEntity
100
AcDbBlockBegin
2
*PAPER_SPACE
0
ENDBLK
5
1D
100
AcDbEntity
100
AcDbBlockEnd
0
ENDSEC
0
SECTION
2
ENTITIES
0
LWPOLYLINE
5
100
100
AcDbEntity
8
0
100
AcDbPolyline
90
6
70
1
43
0.0
10
-188.61809737110192
20
121.70000000005912
10
-188.61809737110192
20
121.98077545253281
42
-0.097657264624955456
10
-188.61809737110192
20
122.61922454749403
10
-188.61809737110192
20
123.70000000005911
42
-0.99999999999999989
10
-185.31809737110194
20
123.70000000005911
10
-185.31809737110194
20
121.70000000005912
42
-0.99999999999999989
0
LWPOLYLINE
5
101
100
AcDbEntity
8
0
100
AcDbPolyline
90
6
70
1
43
0.0
10
-188.6180973711019
20
271.70000000005911
10
-188.61809737110192
20
272.38077545253259
42
-0.09765726462499312
10
-188.61809737110192
20
273.01922454749422
10
-188.6180973711019
20
273.70000000005905
42
-0.99999999999999989
10
-185.31809737110191
20
273.70000000005905
10
-185.31809737110191
20
271.70000000005911
42
-0.99999999999999989
0
LWPOLYLINE
5
102
100
AcDbEntity
8
0
100
AcDbPolyline
90
4
70
1
43
0.0
10
-197.19927196721002
20
-23.635430564915584
10
195.49212989722307
20
-23.635430564915584
10
195.49212989722304
20
305.00000000001342
10
-197.19927196721005
20
305.00000000001342
0
LWPOLYLINE
5
103
100
AcDbEntity
8
0
100
AcDbPolyline
90
6
70
1
43
0.0
10
-36.152014790518201
20
166.02955280132346
42
0.68407358211526492
10
-36.692486956652537
20
164.6397309318665
10
-21.595499626335641
20
150.8058908075156
42
0.38887873184521665
10
-19.433610961934001
20
150.80589080745241
10
-4.3366236318786289
20
164.63973093179138
42
0.68407358213288527
10
-4.8770957979709806
20
166.02955280123939
0
LWPOLYLINE
5
104
100
AcDbEntity
8
0
100
AcDbPolyline
90
9
70
1
43
0.0
10
-45.647525637141449
20
163.9277714957984
42
0.1875965641995562
10
-51.052247298066803
20
166.02955280131906
10
-74.584587636820203
20
166.0295528013234
10
-18.405063496646502
20
114.55050349064243
10
37.774460643005902
20
166.0295528013234
10
14.242120305300407
20
166.02955280131533
42
0.18759656419941803
10
8.8373986444184993
20
163.92777149581343
10
-13.000341835372758
20
143.91716912402759
42
-0.3888787318518831
10
-23.809785157245603
20
143.91716912400742
0
LWPOLYLINE
5
105
100
AcDbEntity
8
0
100
AcDbPolyline
90
6
70
1
43
0.0
10
74.59645552499525
20
159.08044345397471
42
0.68407358213721525
10
71.894094694528107
20
166.02955280134887
10
61.457456369813599
20
166.0295528013234
10
-6.5635656332699499
20
103.69976985136843
10
1.0953841666966435
20
96.681635389430909
42
0.38887873184980393
10
6.5001058276519075
20
96.681635389455323
0
LWPOLYLINE
5
106
100
AcDbEntity
8
0
100
AcDbPolyline
90
6
70
1
43
0.0
10
188.64031988078679
20
272.51890674718271
10
188.64031988078682
20
271.70000000005905
42
-0.99999999999999989
10
185.34031988078684
20
271.70000000005905
10
185.34031988078684
20
273.70000000005905
42
-0.99999999999999989
10
188.64031988078682
20
273.70000000005905
10
188.64031988078679
20
272.88109325292811
42
-0.055043005142763779
0
LWPOLYLINE
5
107
100
AcDbEntity
8
0
100
AcDbPolyline
90
6
70
1
43
0.0
10
188.64031988078679
20
122.11890674718273
10
188.64031988078679
20
121.70000000005908
42
-0.99999999999999989
10
185.34031988078681
20
121.70000000005908
10
185.34031988078681
20
123.70000000005908
42
-0.99999999999999989
10
188.64031988078679
20
123.70000000005908
10
188.64031988078679
20
122.48109325292813
42
-0.055043005142763779
0
ENDSEC
0
SECTION
2
OBJECTS
0
DICTIONARY
5
C
100
AcDbDictionary
3
ACAD_GROUP
350
D
3
ACAD_MLINESTYLE
350
17
0
DICTIONARY
5
D
100
AcDbDictionary
0
DICTIONARY
5
1A
330
C
100
AcDbDictionary
0
DICTIONARY
5
17
100
AcDbDictionary
0
ENDSEC
0
EOF
