0
SECTION
2
HEADER
9
$INSUNITS
70
4
9
$ACADVER
1
AC1014
9
$HANDSEED
5
FFFF
0
ENDSEC
0
SECTION
2
TABLES
0
TABLE
2
VPORT
5
8
100
AcDbSymbolTable
0
ENDTAB
0
TABLE
2
LTYPE
5
5
100
AcDbSymbolTable
0
LTYPE
5
14
100
AcDbSymbolTableRecord
100
AcDbLinetypeTableRecord
2
BYBLOCK
70
0
0
LTYPE
5
15
100
AcDbSymbolTableRecord
100
AcDbLinetypeTableRecord
2
BYLAYER
70
0
0
ENDTAB
0
TABLE
2
LAYER
5
2
100
AcDbSymbolTable
70
2
0
LAYER
5
50
100
AcDbSymbolTableRecord
100
AcDbLayerTableRecord
2
0
70
0
6
CONTINUOUS
0
ENDTAB
0
TABLE
2
STYLE
5
3
100
AcDbSymbolTable
70
1
0
STYLE
5
11
100
AcDbSymbolTableRecord
100
AcDbTextStyleTableRecord
2
STANDARD
70
0
0
ENDTAB
0
TABLE
2
VIEW
5
6
100
AcDbSymbolTable
70
0
0
ENDTAB
0
TABLE
2
UCS
5
7
100
AcDbSymbolTable
70
0
0
ENDTAB
0
TABLE
2
APPID
5
9
100
AcDbSymbolTable
70
2
0
APPID
5
12
100
AcDbSymbolTableRecord
100
AcDbRegAppTableRecord
2
ACAD
70
0
0
ENDTAB
0
TABLE
2
DIMSTYLE
5
A
100
AcDbSymbolTable
70
1
0
ENDTAB
0
TABLE
2
BLOCK_RECORD
5
1
100
AcDbSymbolTable
70
1
0
BLOCK_RECORD
5
1F
100
AcDbSymbolTableRecord
100
AcDbBlockTableRecord
2
*MODEL_SPACE
0
BLOCK_RECORD
5
1B
100
AcDbSymbolTableRecord
100
AcDbBlockTableRecord
2
*PAPER_SPACE
0
ENDTAB
0
ENDSEC
0
SECTION
2
BLOCKS
0
BLOCK
5
20
100
AcDbEntity
100
AcDbBlockBegin
2
*MODEL_SPACE
0
ENDBLK
5
21
100
AcDbEntity
100
AcDbBlockEnd
0
BLOCK
5
1C
100
AcDbEntity
100
AcDbBlockBegin
2
*PAPER_SPACE
0
ENDBLK
5
1D
100
AcDbEntity
100
AcDbBlockEnd
0
ENDSEC
0
SECTION
2
ENTITIES
0
LWPOLYLINE
5
100
100
AcDbEntity
8
0
100
AcDbPolyline
90
4
70
1
43
0.0
10
173.29690993044693
20
-8.9999999999926104
10
159.29690993044693
20
-8.999999999992605
42
-0.99999999999999989
10
159.29690993044693
20
5.0000000000073896
10
173.29690993044693
20
5.0000000000073941
42
-0.99999999999999989
0
LWPOLYLINE
5
101
100
AcDbEntity
8
0
100
AcDbPolyline
90
4
70
1
43
0.0
10
-159.29590993044698
20
-8.9999999999926104
42
0.99999999999999989
10
-159.29590993044698
20
5.0000000000073941
10
-173.29590993044695
20
5.0000000000073932
42
0.99999999999999989
10
-173.29590993044695
20
-8.9999999999926104
0
LWPOLYLINE
5
102
100
AcDbEntity
8
0
100
AcDbPolyline
90
4
70
1
43
0.0
10
7.5004799853689619
20
-3.9999999999258407
42
1.0000033357778575
10
7.5004999999999802
20
2.0000000000073959
10
-7.4995000000000198
20
2.0000000000073959
42
0.99999999999999989
10
-7.4994999999866652
20
-3.9999999999926046
0
LWPOLYLINE
5
103
100
AcDbEntity
8
0
100
AcDbPolyline
90
12
70
1
43
0.0
10
-5.9315281894099057
20
334.00000000001063
10
5.9325281894110029
20
334.00000000001029
42
-0.080611571670523741
10
6.8812114874613872
20
333.84604989416181
10
8.119208172681585
20
333.43338433242172
42
-0.11643382146585086
10
9.2918452181906979
20
332.70865478182986
10
11.379179656456785
20
330.62132034356381
42
-0.66817863791931975
10
9.2578593128969757
20
325.50000000000409
10
-9.2568593128963137
20
325.50000000000512
42
-0.66817863791927956
10
-11.378179656455774
20
330.62132034356466
10
-9.290845218190622
20
332.70865478182992
42
-0.11643382146585153
10
-8.1182081726815269
20
333.43338433242184
10
-6.8802114874605476
20
333.84604989416226
42
-0.080611571670546986
0
LWPOLYLINE
5
104
100
AcDbEntity
8
0
100
AcDbPolyline
90
8
70
1
43
0.0
10
-184.29928232590572
20
324.9899999999983
10
-140.49929074804351
20
324.98999999999882
42
-0.41421356237309764
10
-138.49929074804348
20
322.98999999999876
10
-138.49929074804348
20
306.99999999999841
42
-0.41421356237309503
10
-140.49929074804345
20
304.99999999999841
10
-184.29928232590569
20
304.99999999999841
42
-0.41421356237309503
10
-186.29928232590569
20
306.99999999999841
10
-186.29928232590578
20
322.98999999999819
42
-0.41421356237308982
0
LWPOLYLINE
5
105
100
AcDbEntity
8
0
100
AcDbPolyline
90
4
70
1
43
0.0
10
212.50028779764227
20
-44.99999999999261
10
212.50028779758679
20
425.00000000001052
10
-212.49928779758682
20
425.00000000001052
10
-212.49928779764232
20
-44.99999999999261
0
LWPOLYLINE
5
106
100
AcDbEntity
8
0
100
AcDbPolyline
90
8
70
1
43
0.0
10
139.86172265445936
20
324.99000000000672
10
184.30071585318782
20
324.9900000000066
42
-0.41421356237313667
10
186.3007158531878
20
322.99000000000638
10
186.30071585318569
20
307.00000000000244
42
-0.41421356237307944
10
184.30071585318552
20
305.00000000000273
10
139.86172265445919
20
305.00000000000671
42
-0.414213562373069
10
137.86172265445938
20
307.00000000000665
10
137.86172265445936
20
322.99000000000666
42
-0.41421356237309503
0
CIRCLE
5
107
100
AcDbEntity
8
0
100
AcDbCircle
10
-202.49928779763766
20
-13.319753748450935
30
0
40
2.2000000000000002
210
0
220
0
230
-1
0
CIRCLE
5
108
100
AcDbEntity
8
0
100
AcDbCircle
10
-202.49928779763752
20
64.880246251549039
30
0
40
2.2000000000000002
210
0
220
0
230
-1
0
CIRCLE
5
109
100
AcDbEntity
8
0
100
AcDbCircle
10
-183.99950000000013
20
341.99999982119482
30
0
40
1.6000000000000003
210
0
220
0
230
-1
0
SPLINE
5
110
100
AcDbEntity
8
0
100
AcDbSpline
70
0
71
3
72
20
73
16
74
0
42
0.000000001
43
0.0000000001
44
0.0000000001
40
-3.1415926535897931
40
-3.1415926535897931
40
-3.1415926535897931
40
-3.1415926535897931
40
-1.5516100151646384
40
-1.5516100151646384
40
-1.5516100151646384
40
-0.34947200888701269
40
-0.34947200888701269
40
-0.34947200888701269
40
0.54474497029363445
40
0.54474497029363445
40
0.54474497029363445
40
1.8590282610816593
40
1.8590282610816593
40
1.8590282610816593
40
3.1415926535897931
40
3.1415926535897931
40
3.1415926535897931
40
3.1415926535897931
10
177.03970202535544
20
348.00000000000875
30
0
10
177.03970202535544
20
346.1412537022789
30
0
10
179.2965706111552
20
344.66954823062429
30
0
10
181.58225285043352
20
344.70056136383511
30
0
10
183.31038838078857
20
344.72400946020139
30
0
10
185.00490009364822
20
345.53260619769077
30
0
10
185.66438808315479
20
346.81221569376453
30
0
10
186.15495185761571
20
347.76406026746122
30
0
10
185.98557940224222
20
348.93632499777948
30
0
10
185.26583438346532
20
349.77629574835015
30
0
10
184.20798279505874
20
351.01085016626917
30
0
10
182.09248289740538
20
351.55566378144124
30
0
10
180.27130352166691
20
351.17385556733063
30
0
10
178.49407646866842
20
350.80126190840048
30
0
10
177.03970202535544
20
349.49936342609999
30
0
10
177.03970202535544
20
348.00000000000875
30
0
0
CIRCLE
5
111
100
AcDbEntity
8
0
100
AcDbCircle
10
0.00049999999998107114
20
415.00000000001052
30
0
40
2.1500000000000066
210
0
220
0
230
1
0
CIRCLE
5
112
100
AcDbEntity
8
0
100
AcDbCircle
10
-202.49928779761458
20
190.00000000000779
30
0
40
2.1500000000000341
210
0
220
0
230
1
0
CIRCLE
5
113
100
AcDbEntity
8
0
100
AcDbCircle
10
202.50028779761453
20
190.00000000000779
30
0
40
2.1499999999999986
210
0
220
0
230
1
0
CIRCLE
5
114
100
AcDbEntity
8
0
100
AcDbCircle
10
0.00049999999998107114
20
-34.99999999999261
30
0
40
2.2000000000000002
210
0
220
0
230
1
0
CIRCLE
5
115
100
AcDbEntity
8
0
100
AcDbCircle
10
0.00071220240215552622
20
315.00000000000466
30
0
40
2.1000000000000001
210
0
220
0
230
1
0
CIRCLE
5
116
100
AcDbEntity
8
0
100
AcDbCircle
10
100.00071220240216
20
315.00000000000091
30
0
40
2.0999999999999908
210
0
220
0
230
1
0
CIRCLE
5
117
100
AcDbEntity
8
0
100
AcDbCircle
10
-99.999287797597844
20
315.00000000000841
30
0
40
2.0999999999999908
210
0
220
0
230
1
0
CIRCLE
5
118
100
AcDbEntity
8
0
100
AcDbCircle
10
202.49928779764306
20
-35.011390976391183
30
0
40
2.1499999999999999
210
0
220
0
230
1
0
CIRCLE
5
119
100
AcDbEntity
8
0
100
AcDbCircle
10
202.64913760061421
20
414.83009829783487
30
0
40
2.1499999999999999
210
0
220
0
230
1
0
CIRCLE
5
120
100
AcDbEntity
8
0
100
AcDbCircle
10
-165.049287797587
20
415.00000000001023
30
0
40
2.2000000000000002
210
0
220
0
230
1
0
CIRCLE
5
121
100
AcDbEntity
8
0
100
AcDbCircle
10
-119.94928779758706
20
415.00000000001012
30
0
40
2.1999999999999824
210
0
220
0
230
1
0
CIRCLE
5
122
100
AcDbEntity
8
0
100
AcDbCircle
10
-202.49928779763752
20
64.880246251549039
30
0
40
2.2000000000000002
210
0
220
0
230
1
0
SPLINE
5
123
100
AcDbEntity
8
0
100
AcDbSpline
70
0
71
3
72
20
73
16
74
0
42
0.000000001
43
0.0000000001
44
0.0000000001
40
-3.1415926535897931
40
-3.1415926535897931
40
-3.1415926535897931
40
-3.1415926535897931
40
-1.5516100151646384
40
-1.5516100151646384
40
-1.5516100151646384
40
-0.34947200888701269
40
-0.34947200888701269
40
-0.34947200888701269
40
0.54474497029363445
40
0.54474497029363445
40
0.54474497029363445
40
1.8590282610816593
40
1.8590282610816593
40
1.8590282610816593
40
3.1415926535897931
40
3.1415926535897931
40
3.1415926535897931
40
3.1415926535897931
10
-177.03970202535544
20
348.00000000000875
30
0
10
-177.03970202535544
20
346.1412537022789
30
0
10
-179.2965706111552
20
344.66954823062429
30
0
10
-181.58225285043352
20
344.70056136383511
30
0
10
-183.31038838078857
20
344.72400946020139
30
0
10
-185.00490009364822
20
345.53260619769077
30
0
10
-185.66438808315479
20
346.81221569376453
30
0
10
-186.15495185761571
20
347.76406026746122
30
0
10
-185.98557940224222
20
348.93632499777948
30
0
10
-185.26583438346532
20
349.77629574835015
30
0
10
-184.20798279505874
20
351.01085016626917
30
0
10
-182.09248289740538
20
351.55566378144124
30
0
10
-180.27130352166691
20
351.17385556733063
30
0
10
-178.49407646866842
20
350.80126190840048
30
0
10
-177.03970202535544
20
349.49936342609999
30
0
10
-177.03970202535544
20
348.00000000000875
30
0
0
CIRCLE
5
124
100
AcDbEntity
8
0
100
AcDbCircle
10
-202.49928779764303
20
-35.011390976391397
30
0
40
2.1499999999999999
210
0
220
0
230
1
0
CIRCLE
5
125
100
AcDbEntity
8
0
100
AcDbCircle
10
165.05028779758678
20
415.00000000001035
30
0
40
2.2000000000000002
210
0
220
0
230
1
0
CIRCLE
5
126
100
AcDbEntity
8
0
100
AcDbCircle
10
-202.64813760061401
20
414.83009829783509
30
0
40
2.1499999999999999
210
0
220
0
230
1
0
CIRCLE
5
127
100
AcDbEntity
8
0
100
AcDbCircle
10
119.95028779758678
20
415.00000000001035
30
0
40
2.1999999999999824
210
0
220
0
230
1
0
CIRCLE
5
128
100
AcDbEntity
8
0
100
AcDbCircle
10
-202.49928779763766
20
-13.319753748450935
30
0
40
2.2000000000000002
210
0
220
0
230
1
0
CIRCLE
5
129
100
AcDbEntity
8
0
100
AcDbCircle
10
-183.99950000000013
20
341.99999982119482
30
0
40
1.6000000000000003
210
0
220
0
230
1
0
CIRCLE
5
130
100
AcDbEntity
8
0
100
AcDbCircle
10
30.000500000000002
20
365.00000000001023
30
2.4868995751603507e-13
40
28.999999999999979
210
1.2810890812264794e-15
220
3.4694469515264537e-18
230
1
0
CIRCLE
5
131
100
AcDbEntity
8
0
100
AcDbCircle
10
5.0005000000001223
20
340.00000000001012
30
0
40
2.2000000000000046
210
1.4802973661668721e-15
220
0
230
1
0
CIRCLE
5
132
100
AcDbEntity
8
0
100
AcDbCircle
10
-4.9994999999997711
20
340.00000000001069
30
0
40
2.2000000000000037
210
1.4802973661668719e-15
220
-1.1728352934495207e-63
230
1
0
CIRCLE
5
133
100
AcDbEntity
8
0
100
AcDbCircle
10
-4.9995000000002507
20
390.00000000001069
30
0
40
2.2000000000000046
210
1.4802973661668721e-15
220
-1.1728352934495204e-63
230
1
0
CIRCLE
5
134
100
AcDbEntity
8
0
100
AcDbCircle
10
5.0004999999999846
20
390.00000000001017
30
0
40
2.2000000000000037
210
1.4802973661668719e-15
220
0
230
1
0
CIRCLE
5
135
100
AcDbEntity
8
0
100
AcDbCircle
10
-29.999499999999998
20
365.00000000001029
30
0
40
28.999999999999936
210
0
220
0
230
1
0
CIRCLE
5
136
100
AcDbEntity
8
0
100
AcDbCircle
10
-54.999499999999898
20
340.00000000001023
30
0
40
2.2000000000000095
210
0
220
0
230
1
0
CIRCLE
5
137
100
AcDbEntity
8
0
100
AcDbCircle
10
55.000500000000173
20
340.00000000001046
30
0
40
2.2000000000000002
210
0
220
0
230
1
0
CIRCLE
5
138
100
AcDbEntity
8
0
100
AcDbCircle
10
-54.99950000000004
20
390.00000000001029
30
0
40
2.2000000000000095
210
0
220
0
230
1
0
CIRCLE
5
139
100
AcDbEntity
8
0
100
AcDbCircle
10
55.000499999999697
20
390.00000000001052
30
0
40
2.2000000000000095
210
0
220
0
230
1
0
ENDSEC
0
SECTION
2
OBJECTS
0
DICTIONARY
5
C
100
AcDbDictionary
3
ACAD_GROUP
350
D
3
ACAD_MLINESTYLE
350
17
0
DICTIONARY
5
D
100
AcDbDictionary
0
DICTIONARY
5
1A
330
C
100
AcDbDictionary
0
DICTIONARY
5
17
100
AcDbDictionary
0
ENDSEC
0
EOF
